<svg width="1200" height="200" xmlns="http://www.w3.org/2000/svg">
  <!-- Background -->
  <rect width="1200" height="200" fill="#ffffff"/>
  
  <!-- Icon -->
  <g transform="translate(30, 50)">
    <rect x="0" y="15" width="45" height="60" fill="#667eea" rx="3"/>
    <rect x="8" y="23" width="9" height="9" fill="#ffffff" opacity="0.9"/>
    <rect x="8" y="38" width="9" height="9" fill="#ffffff" opacity="0.9"/>
    <rect x="8" y="53" width="9" height="9" fill="#ffffff" opacity="0.9"/>
    <rect x="28" y="23" width="9" height="9" fill="#ffffff" opacity="0.9"/>
    <rect x="28" y="38" width="9" height="9" fill="#ffffff" opacity="0.9"/>
    <rect x="28" y="53" width="9" height="9" fill="#ffffff" opacity="0.9"/>
    <circle cx="22" cy="8" r="6" fill="#764ba2"/>
    <circle cx="52" cy="30" r="5" fill="#f093fb"/>
    <line x1="26" y1="10" x2="48" y2="28" stroke="#764ba2" stroke-width="2" opacity="0.6"/>
    <path d="M 48 41 L 56 49 L 64 34" stroke="#4ade80" stroke-width="2.5" fill="none" stroke-linecap="round"/>
  </g>
  
  <!-- Main Text -->
  <text x="110" y="95" font-family="Arial, Helvetica, sans-serif" font-size="48" font-weight="bold" fill="#1e293b">
    Estatelytic<tspan fill="#667eea">AI</tspan>
  </text>
  
  <!-- Divider -->
  <line x1="480" y1="60" x2="480" y2="125" stroke="#e2e8f0" stroke-width="2"/>
  
  <!-- Tagline -->
  <text x="510" y="80" font-family="Arial, Helvetica, sans-serif" font-size="28" font-weight="600" fill="#667eea">
    India's Property UPI
  </text>
  <text x="510" y="115" font-family="Arial, Helvetica, sans-serif" font-size="20" font-weight="500" fill="#64748b">
    Transparent • Tracked • Trusted
  </text>
  
  <!-- Gradient accent -->
  <rect x="110" y="115" width="900" height="2" fill="url(#gradientH)" rx="1"/>
  
  <defs>
    <linearGradient id="gradientH" x1="0%" y1="0%" x2="100%" y2="0%">
      <stop offset="0%" style="stop-color:#667eea;stop-opacity:1" />
      <stop offset="50%" style="stop-color:#764ba2;stop-opacity:1" />
      <stop offset="100%" style="stop-color:#f093fb;stop-opacity:0.5" />
    </linearGradient>
  </defs>
</svg>
