<svg width="1200" height="220" xmlns="http://www.w3.org/2000/svg">
  <!-- Background -->
  <rect width="1200" height="220" fill="#ffffff"/>
  
  <!-- Icon -->
  <g transform="translate(30, 55)">
    <defs>
      <linearGradient id="buildingGradH" x1="0%" y1="0%" x2="0%" y2="100%">
        <stop offset="0%" style="stop-color:#667eea;stop-opacity:1" />
        <stop offset="100%" style="stop-color:#764ba2;stop-opacity:1" />
      </linearGradient>
    </defs>
    
    <rect x="0" y="15" width="45" height="60" fill="url(#buildingGradH)" rx="3"/>
    <rect x="8" y="23" width="9" height="9" fill="#ffffff" opacity="0.9"/>
    <rect x="8" y="38" width="9" height="9" fill="#ffffff" opacity="0.9"/>
    <rect x="8" y="53" width="9" height="9" fill="#ffffff" opacity="0.9"/>
    <rect x="28" y="23" width="9" height="9" fill="#ffffff" opacity="0.9"/>
    <rect x="28" y="38" width="9" height="9" fill="#ffffff" opacity="0.9"/>
    <rect x="28" y="53" width="9" height="9" fill="#ffffff" opacity="0.9"/>
    <circle cx="22" cy="8" r="6" fill="#764ba2"/>
    <circle cx="52" cy="30" r="5" fill="#f093fb"/>
    <line x1="26" y1="10" x2="48" y2="28" stroke="#764ba2" stroke-width="2" opacity="0.6"/>
    <path d="M 48 41 L 56 49 L 64 34" stroke="#000080" stroke-width="2.5" fill="none" stroke-linecap="round"/>
  </g>
  
  <!-- Main Text -->
  <text x="110" y="90" font-family="Arial, Helvetica, sans-serif" font-size="48" font-weight="bold" fill="#1e293b">
    Estatelytic<tspan fill="#667eea">AI</tspan>
  </text>
  
  <!-- Divider -->
  <line x1="480" y1="55" x2="480" y2="130" stroke="#e2e8f0" stroke-width="2"/>
  
  <!-- Tagline -->
  <text x="510" y="75" font-family="Arial, Helvetica, sans-serif" font-size="28" font-weight="600" fill="#667eea">
    India's Property UPI
  </text>
  <text x="510" y="110" font-family="Arial, Helvetica, sans-serif" font-size="20" font-weight="500" fill="#64748b">
    Transparent • Tracked • Trusted
  </text>
  
  <!-- Made in INDIA badge with Ashoka lions -->
  <g transform="translate(510, 125)">
    <rect x="0" y="0" width="160" height="28" rx="14" fill="#f8fafc" stroke="#e2e8f0" stroke-width="1.5"/>
    
    <!-- Ashoka Lion Capital -->
    <g transform="translate(7, 7)">
      <rect x="5" y="11" width="4" height="3" fill="#D4AF37" rx="0.5"/>
      <path d="M 5 11 L 4 8 L 5 6 L 7 6 L 8 8 L 7 11 Z" fill="#D4AF37"/>
      <path d="M 8 11 L 9 8 L 8 6 L 10 6 L 11 8 L 10 11 Z" fill="#D4AF37"/>
      <circle cx="5.5" cy="6" r="1.2" fill="#B8860B"/>
      <circle cx="9.5" cy="6" r="1.2" fill="#B8860B"/>
      <circle cx="7" cy="4" r="2.5" fill="none" stroke="#000080" stroke-width="0.6"/>
      <circle cx="7" cy="4" r="0.8" fill="#000080"/>
    </g>
    
    <rect x="22" y="7" width="3" height="14" fill="#FF9933" rx="1.5"/>
    <rect x="26" y="7" width="3" height="14" fill="#ffffff" rx="1.5" stroke="#d1d5db" stroke-width="0.5"/>
    <rect x="30" y="7" width="3" height="14" fill="#138808" rx="1.5"/>
    <text x="42" y="19" font-family="Arial, Helvetica, sans-serif" font-size="12" font-weight="700" fill="#1e293b">
      Made in <tspan fill="#FF9933">I</tspan><tspan fill="#000080">N</tspan><tspan fill="#138808">D</tspan><tspan fill="#FF9933">I</tspan><tspan fill="#000080">A</tspan>
    </text>
  </g>
  
  <!-- Gradient accent -->
  <rect x="110" y="135" width="900" height="2" fill="url(#gradientH)" rx="1"/>
  
  <defs>
    <linearGradient id="gradientH" x1="0%" y1="0%" x2="100%" y2="0%">
      <stop offset="0%" style="stop-color:#667eea;stop-opacity:1" />
      <stop offset="50%" style="stop-color:#764ba2;stop-opacity:1" />
      <stop offset="100%" style="stop-color:#f093fb;stop-opacity:0.5" />
    </linearGradient>
  </defs>
</svg>
