<svg width="800" height="300" xmlns="http://www.w3.org/2000/svg">
  <!-- Dark Background -->
  <rect width="800" height="300" fill="#0f172a"/>
  
  <!-- Icon -->
  <g transform="translate(40, 80)">
    <rect x="0" y="20" width="60" height="80" fill="#818cf8" rx="4"/>
    <rect x="10" y="30" width="12" height="12" fill="#1e293b" opacity="0.8"/>
    <rect x="10" y="50" width="12" height="12" fill="#1e293b" opacity="0.8"/>
    <rect x="10" y="70" width="12" height="12" fill="#1e293b" opacity="0.8"/>
    <rect x="38" y="30" width="12" height="12" fill="#1e293b" opacity="0.8"/>
    <rect x="38" y="50" width="12" height="12" fill="#1e293b" opacity="0.8"/>
    <rect x="38" y="70" width="12" height="12" fill="#1e293b" opacity="0.8"/>
    <circle cx="30" cy="10" r="8" fill="#a78bfa"/>
    <circle cx="70" cy="40" r="6" fill="#f0abfc"/>
    <line x1="35" y1="12" x2="65" y2="38" stroke="#a78bfa" stroke-width="2" opacity="0.7"/>
    <path d="M 65 55 L 75 65 L 85 45" stroke="#4ade80" stroke-width="3" fill="none" stroke-linecap="round"/>
  </g>
  
  <!-- Main Text -->
  <text x="140" y="125" font-family="Arial, Helvetica, sans-serif" font-size="52" font-weight="bold" fill="#f8fafc">
    Estatelytic<tspan fill="#818cf8">AI</tspan>
  </text>
  
  <!-- Tagline -->
  <text x="140" y="165" font-family="Arial, Helvetica, sans-serif" font-size="24" font-weight="600" fill="#818cf8">
    India's Property UPI
  </text>
  <text x="140" y="195" font-family="Arial, Helvetica, sans-serif" font-size="18" font-weight="500" fill="#94a3b8">
    Transparent • Tracked • Trusted
  </text>
  
  <!-- Accent line -->
  <rect x="140" y="210" width="180" height="3" fill="url(#gradientDark)" rx="1.5"/>
  
  <defs>
    <linearGradient id="gradientDark" x1="0%" y1="0%" x2="100%" y2="0%">
      <stop offset="0%" style="stop-color:#818cf8;stop-opacity:1" />
      <stop offset="50%" style="stop-color:#a78bfa;stop-opacity:1" />
      <stop offset="100%" style="stop-color:#f0abfc;stop-opacity:1" />
    </linearGradient>
  </defs>
</svg>
