<svg width="220" height="220" xmlns="http://www.w3.org/2000/svg">
  <!-- Background -->
  <rect width="220" height="220" fill="#ffffff"/>
  
  <!-- Icon centered -->
  <g transform="translate(60, 40)">
    <defs>
      <linearGradient id="buildingGradIcon" x1="0%" y1="0%" x2="0%" y2="100%">
        <stop offset="0%" style="stop-color:#667eea;stop-opacity:1" />
        <stop offset="100%" style="stop-color:#764ba2;stop-opacity:1" />
      </linearGradient>
    </defs>
    
    <!-- Building -->
    <rect x="0" y="20" width="80" height="100" fill="url(#buildingGradIcon)" rx="5"/>
    <rect x="12" y="32" width="16" height="16" fill="#ffffff" opacity="0.9" rx="2"/>
    <rect x="12" y="56" width="16" height="16" fill="#ffffff" opacity="0.9" rx="2"/>
    <rect x="12" y="80" width="16" height="16" fill="#ffffff" opacity="0.9" rx="2"/>
    <rect x="52" y="32" width="16" height="16" fill="#ffffff" opacity="0.9" rx="2"/>
    <rect x="52" y="56" width="16" height="16" fill="#ffffff" opacity="0.9" rx="2"/>
    <rect x="52" y="80" width="16" height="16" fill="#ffffff" opacity="0.9" rx="2"/>
    
    <!-- UPI-style connecting elements -->
    <circle cx="40" cy="10" r="10" fill="#764ba2"/>
    <circle cx="90" cy="50" r="8" fill="#f093fb"/>
    <line x1="46" y1="13" x2="84" y2="46" stroke="#764ba2" stroke-width="3" opacity="0.6"/>
    
    <!-- Trust checkmark (India flag blue) -->
    <path d="M 85 70 L 98 83 L 115 55" stroke="#000080" stroke-width="4" fill="none" stroke-linecap="round" stroke-linejoin="round"/>
  </g>
  
  <!-- Made in INDIA badge at bottom with Ashoka lions -->
  <g transform="translate(40, 175)">
    <rect x="0" y="0" width="160" height="28" rx="14" fill="#f8fafc" stroke="#e2e8f0" stroke-width="1.5"/>
    
    <!-- Ashoka Lion Capital -->
    <g transform="translate(7, 7)">
      <rect x="5" y="11" width="4" height="3" fill="#D4AF37" rx="0.5"/>
      <path d="M 5 11 L 4 8 L 5 6 L 7 6 L 8 8 L 7 11 Z" fill="#D4AF37"/>
      <path d="M 8 11 L 9 8 L 8 6 L 10 6 L 11 8 L 10 11 Z" fill="#D4AF37"/>
      <circle cx="5.5" cy="6" r="1.2" fill="#B8860B"/>
      <circle cx="9.5" cy="6" r="1.2" fill="#B8860B"/>
      <circle cx="7" cy="4" r="2.5" fill="none" stroke="#000080" stroke-width="0.6"/>
      <circle cx="7" cy="4" r="0.8" fill="#000080"/>
    </g>
    
    <rect x="22" y="7" width="3" height="14" fill="#FF9933" rx="1.5"/>
    <rect x="26" y="7" width="3" height="14" fill="#ffffff" rx="1.5" stroke="#d1d5db" stroke-width="0.5"/>
    <rect x="30" y="7" width="3" height="14" fill="#138808" rx="1.5"/>
    <text x="42" y="19" font-family="Arial, Helvetica, sans-serif" font-size="12" font-weight="700" fill="#1e293b">
      Made in <tspan fill="#FF9933">I</tspan><tspan fill="#000080">N</tspan><tspan fill="#138808">D</tspan><tspan fill="#FF9933">I</tspan><tspan fill="#000080">A</tspan>
    </text>
  </g>
</svg>
